<svg xmlns="http://www.w3.org/2000/svg" xmlns:xlink="http://www.w3.org/1999/xlink" xmlns:inkscape="http://www.inkscape.org/namespaces/inkscape" version="1.1" width="351.681" height="139.864" viewBox="0 0 351.681 139.864">
<defs>
<path id="font_1_3" d="M.47399903 .6722412C.46299745 .6982422 .45098878 .6982422 .43399049 .6982422 .4059906 .6982422 .4019928 .6902313 .394989 .6722412L.14698792 .07002258C.14099121 .055007936 .13798523 .04699707 .06199646 .04699707H.040985109V0C.07899475 .0009918213 .1269989 .0029907227 .1579895 .0029907227 .19699097 .0029907227 .25299073 .0029907227 .2899933 0V.04699707C.28799439 .04699707 .20098877 .04699707 .20098877 .060012819 .20098877 .061019899 .20399475 .07102966 .20498657 .07203674L.25498963 .19322205H.522995L.58299258 .04699707H.48799134V0C.526001 .0029907227 .62098696 .0029907227 .6639862 .0029907227 .70399478 .0029907227 .7919922 .0029907227 .82699587 0V.04699707H.7299957L.47399903 .6722412M.3889923 .51823428 .5029907 .24023438H.2749939L.3889923 .51823428Z"/>
<path id="font_1_12" d="M.22399903 .69433596 .04699707 .6863251V.639328C.10899353 .639328 .115997318 .639328 .115997318 .6003113V.04699707H.04699707V0C.07899475 .0009918213 .1269989 .0029907227 .16999817 .0029907227 .21299744 .0029907227 .25898744 .0009918213 .29299928 0V.04699707H.22399903V.69433596Z"/>
<path id="font_1_9" d="M.25498963 .19029236C.16699219 .19029236 .16699219 .2572174 .16699219 .3021698 .16699219 .3471222 .16699219 .4140625 .25498963 .4140625 .34298707 .4140625 .34298707 .3471222 .34298707 .3021698 .34298707 .2572174 .34298707 .19029236 .25498963 .19029236M.1329956 .1802826C.1789856 .15629578 .22999573 .15429688 .25498963 .15429688 .39898683 .15429688 .45399476 .23223877 .45399476 .3021698 .45399476 .3491211 .42900086 .38209535 .4139862 .3980713 .44400025 .4140625 .46499635 .4160614 .47599793 .41705323 .47399903 .4120636 .47200013 .4030609 .47200013 .39707948 .47200013 .37210084 .4889984 .35412599 .5149994 .35412599 .54100039 .35412599 .55799868 .37309266 .55799868 .39707948 .55799868 .4200592 .54100039 .4550476 .49499513 .4550476 .47999574 .4550476 .43299867 .45205689 .3889923 .41705323 .37098695 .4290619 .32899476 .45005799 .25498963 .45005799 .11099243 .45005799 .055999757 .37210084 .055999757 .3021698 .055999757 .2612152 .07598877 .22026062 .10798645 .19728089 .07998657 .16229248 .07398987 .12918091 .07398987 .10810852 .07398987 .093048099 .07798767 .044006349 .117996219 .011993408 .10499573 .009002686 .03199768-.011993408 .03199768-.07507324 .03199768-.12612915 .08699036-.20117188 .2869873-.20117188 .46398927-.20117188 .5419922-.14215088 .5419922-.07206726 .5419922-.042037965 .5339966 .020996094 .46699525 .054992677 .41099549 .08300781 .35099793 .08300781 .25498963 .08300781 .22898865 .08300781 .18299866 .08300781 .17799378 .083999637 .13398743 .091033939 .12298584 .12918091 .12298584 .14726258 .12298584 .1572876 .1269989 .17228699 .1329956 .1802826M.19499207-.013000488H.31199647C.34298707-.013000488 .45599366-.013000488 .45599366-.07507324 .45599366-.1111145 .4169922-.16517639 .2869873-.16517639 .16699219-.16517639 .117996219-.119125369 .117996219-.07307434 .117996219-.013000488 .18099976-.013000488 .19499207-.013000488Z"/>
<path id="font_1_15" d="M.5419922 .21812439C.5419922 .35212709 .44999696 .453125 .2869873 .453125 .12298584 .453125 .03199768 .35112 .03199768 .21812439 .03199768 .09413147 .11999512-.005859375 .2869873-.005859375 .45498658-.005859375 .5419922 .09512329 .5419922 .21812439M.2869873 .03413391C.1599884 .03413391 .1599884 .14213562 .1599884 .22912598 .1599884 .27412416 .1599884 .32511903 .1769867 .3591156 .19599915 .39611817 .23799134 .41711427 .2869873 .41711427 .32899476 .41711427 .37098695 .40112306 .3929901 .36611939 .4139862 .3321228 .4139862 .27713014 .4139862 .22912598 .4139862 .14213562 .4139862 .03413391 .2869873 .03413391Z"/>
<path id="font_1_17" d="M.20298767 .3371582V.4501953L.036987306 .44218446V.39518739C.09899902 .39518739 .10598755 .39518739 .10598755 .35617066V.04699707H.036987306V0C.07199097 .0009918213 .116989139 .0029907227 .16299439 .0029907227 .20098877 .0029907227 .2649994 .0029907227 .30099488 0V.04699707H.21398926V.22209168C.21398926 .2921753 .23899842 .41418458 .33898927 .41418458 .33799745 .41319276 .31999208 .39718629 .31999208 .36819459 .31999208 .3271942 .35198976 .30718995 .3809967 .30718995 .4099884 .30718995 .44198609 .32818605 .44198609 .36819459 .44198609 .42118836 .3880005 .4501953 .33599855 .4501953 .2659912 .4501953 .22599793 .40019227 .20298767 .3371582Z"/>
<path id="font_1_11" d="M.22399903 .4501953 .049987794 .44218446V.39518739C.10899353 .39518739 .115997318 .39518739 .115997318 .35617066V.04699707H.04699707V0C.07798767 .0009918213 .1269989 .0029907227 .16899109 .0029907227 .19898987 .0029907227 .25 .0009918213 .28599549 0V.04699707H.22399903V.4501953M.23399353 .6173096C.23399353 .66130068 .19799805 .6953125 .1559906 .6953125 .11299133 .6953125 .07798767 .66030886 .07798767 .6173096 .07798767 .5743103 .11299133 .53930667 .1559906 .53930667 .19799805 .53930667 .23399353 .5733032 .23399353 .6173096Z"/>
<path id="font_1_18" d="M.102996829 .3973236V.123184207C.102996829 .01612854 .18998719-.005859375 .26098634-.005859375 .33699037-.005859375 .38198854 .05114746 .38198854 .124176029V.17721558H.33499146V.12619019C.33499146 .058151246 .30299378 .03413391 .2749939 .03413391 .21699524 .03413391 .21699524 .09817505 .21699524 .1211853V.3973236H.36299134V.44433595H.21699524V.6352234H.16999817C.16899109 .5352783 .11999512 .43632508 .020996094 .43333436V.3973236H.102996829Z"/>
<path id="font_1_10" d="M.11399841 .04699707H.04499817V0C.07299805 .0009918213 .1329956 .0029907227 .17098999 .0029907227 .20999146 .0029907227 .2689972 .0009918213 .29699708 0V.04699707H.22799683V.25610353C.22799683 .36515809 .31399537 .41418458 .3769989 .41418458 .41099549 .41418458 .43199159 .39317323 .43199159 .31713868V.04699707H.36299134V0C.3909912 .0009918213 .45098878 .0029907227 .4889984 .0029907227 .5279999 .0029907227 .58699038 .0009918213 .61499026 0V.04699707H.54599V.30613709C.54599 .41119386 .49198915 .4501953 .3919983 .4501953 .29599 .4501953 .24499512 .3921814 .22200012 .3521576V.69433596L.04499817 .6863251V.639328C.10699463 .639328 .11399841 .639328 .11399841 .600296V.04699707Z"/>
<path id="font_1_13" d="M.11399841 .3561554V.04699707H.04499817V0C.07299805 .0009918213 .1329956 .0029907227 .17098999 .0029907227 .20999146 .0029907227 .2689972 .0009918213 .29699708 0V.04699707H.22799683V.25610353C.22799683 .36515809 .31498719 .41418458 .3769989 .41418458 .41099549 .41418458 .43299867 .3941803 .43299867 .31713868V.04699707H.3639984V0C.3919983 .0009918213 .45199586 .0029907227 .48999024 .0029907227 .5289917 .0029907227 .58799746 .0009918213 .6159973 0V.04699707H.5469971V.25610353C.5469971 .36515809 .6339874 .41418458 .69599917 .41418458 .7299957 .41418458 .7519989 .3941803 .7519989 .31713868V.04699707H.68299868V0C.71099856 .0009918213 .7709961 .0029907227 .8089905 .0029907227 .84799197 .0029907227 .9069977 .0009918213 .93499758 0V.04699707H.8659973V.30613709C.8659973 .40919496 .8149872 .4501953 .71199038 .4501953 .62098696 .4501953 .56900027 .400177 .54299929 .3541565 .522995 .44718934 .43099977 .4501953 .3929901 .4501953 .30599977 .4501953 .24899292 .40518189 .21699524 .34214784V.4501953L.04499817 .44218446V.39518739C.10699463 .39518739 .11399841 .39518739 .11399841 .3561554Z"/>
<path id="font_1_1" d="M.35398866 .62316897C.35398866 .6452637 .35398866 .65527346 .32798768 .65527346 .31698609 .65527346 .31498719 .65527346 .30599977 .64826968 .22898865 .5909424 .12599182 .5909424 .10499573 .5909424H.084991458V.5439453H.10499573C.12098694 .5439453 .17599488 .54493716 .23498535 .5639343V.04699707H.09599304V0C.13999939 .0029907227 .24598694 .0029907227 .29499818 .0029907227 .34399415 .0029907227 .44999696 .0029907227 .49398805 0V.04699707H.35398866V.62316897Z"/>
<path id="font_1_2" d="M.23699951 .366333C.23699951 .40933229 .20199585 .44433595 .15899658 .44433595 .115997318 .44433595 .08099365 .40933229 .08099365 .366333 .08099365 .32333375 .115997318 .28833009 .15899658 .28833009 .20199585 .28833009 .23699951 .32333375 .23699951 .366333M.23699951 .07798767C.23699951 .12098694 .20199585 .1559906 .15899658 .1559906 .115997318 .1559906 .08099365 .12098694 .08099365 .07798767 .08099365 .034988405 .115997318 0 .15899658 0 .20199585 0 .23699951 .034988405 .23699951 .07798767Z"/>
<path id="font_2_1" d="M.74398806 .6536102 .7449951 .65260317V.07795715C.7449951 .041992189 .7429962 .0309906 .66600039 .0309906H.6419983V0C.67900088 .0029907227 .746994 .0029907227 .7859955 .0029907227 .82499697 .0029907227 .8919983 .0029907227 .92900088 0V.0309906H.9049988C.8279877 .0309906 .82598879 .041992189 .82598879 .07795715V.6046295C.82598879 .64060977 .8279877 .6516113 .9049988 .6516113H.92900088V.6826172H.7599945C.7369995 .6826172 .73399356 .6826172 .7259979 .66360476L.49398805 .094955448 .2619934 .6646118C.25498963 .6826172 .24899292 .6826172 .22799683 .6826172H.05899048V.6516113H.08299255C.1599884 .6516113 .1619873 .64060977 .1619873 .6046295V.10494995C.1619873 .07795715 .1619873 .0309906 .05899048 .0309906V0C.09399414 .0009918213 .14299011 .0029907227 .17599488 .0029907227 .20899964 .0029907227 .2579956 .0009918213 .29299928 0V.0309906C.18998719 .0309906 .18998719 .07795715 .18998719 .10494995V.6456146L.19099427 .64660647 .44699098 .017990113C.45098878 .008987427 .45599366 0 .46598817 0 .47599793 0 .48098756 .008987427 .4850006 .017990113L.74398806 .6536102Z"/>
<path id="font_2_3" d="M.48799134 .5106659H.042999269V.48565675C.10998535 .48565675 .114990238 .4796753 .114990238 .4387207V.07197571C.114990238 .0309906 .10998535 .024993897 .042999269 .024993897V0H.5L.5289917 .19393921H.5039978C.4869995 .07298279 .46299745 .024993897 .33499146 .024993897H.22698975C.19198609 .024993897 .18699646 .02798462 .18699646 .067977908V.2529297H.25698854C.33099366 .2529297 .34298707 .23292542 .34298707 .16595459H.36799623V.36480714H.34298707C.34298707 .29789735 .33099366 .27792359 .25698854 .27792359H.18699646V.4427185C.18699646 .48266603 .19198609 .48565675 .22698975 .48565675H.32899476C.44499208 .48565675 .47099305 .4507141 .48199464 .34184266H.5069885L.48799134 .5106659Z"/>
<path id="font_2_6" d="M.18598938 .4456482C.18598938 .47065736 .18798828 .4806671 .19799805 .48565675 .20498657 .48866273 .23199463 .48866273 .25 .48866273 .32398988 .48866273 .40899659 .48565675 .40899659 .37861634 .40899659 .3395996 .4039917 .26757813 .27398683 .26757813H.18598938V.4456482M.36299134 .25457765C.43299867 .27256776 .49499513 .31759645 .49499513 .37861634 .49499513 .44863893 .4059906 .5136719 .2849884 .5136719H.04499817V.48866273C.11199951 .48866273 .116989139 .48266603 .116989139 .4416504V.071899417C.116989139 .030975342 .11199951 .024993897 .04499817 .024993897V0C.07499695 .0009918213 .12298584 .0029907227 .15098572 .0029907227 .17999268 .0029907227 .23199463 .0009918213 .2579956 0V.024993897C.19099427 .024993897 .18598938 .030975342 .18598938 .071899417V.24557495H.27598573C.30099488 .24557495 .32699586 .24456787 .35798646 .21366883 .3789978 .19174195 .3789978 .16781616 .3789978 .12394714 .3789978 .06813049 .3789978 .050186159 .41099549 .01928711 .42900086 .0013275147 .46899415-.013671875 .5139923-.013671875 .5779877-.013671875 .59298709 .048187257 .59298709 .06813049 .59298709 .07310486 .59298709 .08308411 .5799866 .08308411 .56900027 .08308411 .56799319 .07411194 .56799319 .070114139 .5609894 .009307861 .5249939 .00831604 .5179901 .00831604 .49798585 .00831604 .4889984 .021270752 .48298646 .03224182 .47499085 .048187257 .46899415 .07609558 .45599366 .13990784 .44799806 .17478943 .43798829 .22563172 .36299134 .25457765Z"/>
<path id="font_2_4" d="M.5389862 .50431826C.5389862 .52030947 .5389862 .5283203 .5289917 .5283203 .522995 .5283203 .5219879 .52630618 .5139923 .51631167L.47499085 .4653473C.43798829 .50631716 .3849945 .5283203 .32998658 .5283203 .18099976 .5283203 .050994874 .4104004 .050994874 .2575531 .050994874 .10848999 .17599488-.013671875 .33198548-.013671875 .36698915-.013671875 .44099427-.008682251 .47999574 .04638672 .4889984 .032348634 .5189972 .0013275147 .5299988 .0013275147 .5389862 .0013275147 .5389862 .00932312 .5389862 .024337769V.13752747C.5389862 .17660523 .54299929 .18261719 .59498599 .18261719V.20761109C.56199648 .20561219 .5219879 .2046051 .49598695 .2046051 .45999146 .2046051 .4019928 .2046051 .36698915 .20761109V.18261719H.3869934C.46299745 .18261719 .46699525 .17158509 .46699525 .1315155V.10147095C.46699525 .078430179 .46699525 .054397584 .4269867 .03135681 .40499879 .018325806 .37098695 .0113220219 .34199525 .0113220219 .2809906 .0113220219 .13699341 .04437256 .13699341 .2575531 .13699341 .47634889 .28799439 .50331118 .33699037 .50331118 .4099884 .50331118 .49398805 .45137025 .5130005 .3244934 .5149994 .31750489 .5159912 .31150819 .526001 .31150819 .5389862 .31150819 .5389862 .3164978 .5389862 .33547975V.50431826Z"/>
<path id="font_2_2" d="M.24398804 .41986085C.15699768 .44088746 .13598633 .5099335 .13598633 .5459595 .13598633 .6140137 .19299317 .677063 .27799989 .677063 .41600038 .677063 .46899415 .57598879 .48298646 .47390748 .4850006 .46089173 .4850006 .45588685 .49598695 .45588685 .5089874 .45588685 .5089874 .46089173 .5089874 .47990418V.68107607C.5089874 .69807437 .5089874 .7050781 .49798585 .7050781 .4909973 .7050781 .4909973 .70407107 .48298646 .69207766L.44599916 .6330414C.4189911 .66004946 .37298585 .7050781 .2769928 .7050781 .16099549 .7050781 .07199097 .61701968 .07199097 .51094058 .07199097 .44688417 .10598755 .40185548 .11898804 .38684083 .1659851 .33779908 .19599915 .3307953 .2789917 .31077577 .29499818 .30677796 .31199647 .30377198 .32798768 .2997589 .3869934 .28575135 .40699769 .28074647 .43798829 .24671936 .44400025 .23971558 .47399903 .20568848 .47399903 .15164185 .47399903 .080596927 .42099 .008529663 .32998658 .008529663 .28799439 .008529663 .22099304 .016540528 .1659851 .059570314 .100997928 .11061096 .09799194 .18367005 .09700012 .21769715 .09599304 .22470093 .08999634 .22669983 .084991458 .22669983 .07199097 .22669983 .07199097 .21969605 .07199097 .20169068V.0015258789C.07199097-.015472412 .07199097-.022460938 .08299255-.022460938 .08999634-.022460938 .09199524-.019470215 .09799194-.010467529L.1349945 .049560548C.16299439 .02053833 .22799683-.022460938 .33099366-.022460938 .45599366-.022460938 .5379944 .07858276 .5379944 .18467713 .5379944 .26474 .48999024 .3598175 .37998963 .38684083L.24398804 .41986085Z"/>
<path id="font_2_5" d="M.58499148 .25531007C.58499148 .40431214 .46598817 .5283203 .31799317 .5283203 .16899109 .5283203 .050994874 .40431214 .050994874 .25531007 .050994874 .10432434 .17199707-.013671875 .31799317-.013671875 .46398927-.013671875 .58499148 .10432434 .58499148 .25531007M.31799317 .012313843C.24699402 .012313843 .13699341 .06932068 .13699341 .26631166 .13699341 .4543152 .25099183 .50331118 .31799317 .50331118 .38598634 .50331118 .49899293 .4533081 .49899293 .26631166 .49899293 .06932068 .3889923 .012313843 .31799317 .012313843Z"/>
<path id="font_2_7" d="M.54100039 .5076599H.049987794L.035995485 .33877564H.06098938C.069992069 .4646759 .08999634 .48266603 .20098877 .48266603 .25698854 .48266603 .2599945 .48266603 .2599945 .43969728V.07595825C.2599945 .035980226 .2559967 .024993897 .1789856 .024993897H.1579895V0C.19699097 .0029907227 .2559967 .0029907227 .29599 .0029907227 .33599855 .0029907227 .394989 .0029907227 .43399049 0V.024993897H.41299439C.33599855 .024993897 .33198548 .035980226 .33198548 .07595825V.43969728C.33198548 .48266603 .33499146 .48266603 .3909912 .48266603 .49899293 .48266603 .5209961 .46568299 .5299988 .33877564H.5549927L.54100039 .5076599Z"/>
<path id="font_1_4" d="M.2889862 .63853457H.40299989V.6855469C.3619995 .6825409 .2639923 .6825409 .21798706 .6825409 .17199707 .6825409 .07398987 .6825409 .032989503 .6855469V.63853457H.14698792V.04699707H.032989503V0C.07398987 .0029907227 .17199707 .0029907227 .21798706 .0029907227 .2639923 .0029907227 .3619995 .0029907227 .40299989 0V.04699707H.2889862V.63853457Z"/>
<path id="font_1_14" d="M.11399841 .3561554V.04699707H.04499817V0C.07299805 .0009918213 .1329956 .0029907227 .17098999 .0029907227 .20999146 .0029907227 .2689972 .0009918213 .29699708 0V.04699707H.22799683V.25610353C.22799683 .36515809 .31399537 .41418458 .3769989 .41418458 .41099549 .41418458 .43199159 .39317323 .43199159 .31713868V.04699707H.36299134V0C.3909912 .0009918213 .45098878 .0029907227 .4889984 .0029907227 .5279999 .0029907227 .58699038 .0009918213 .61499026 0V.04699707H.54599V.30613709C.54599 .41119386 .49198915 .4501953 .3919983 .4501953 .29599 .4501953 .24299622 .39317323 .21699524 .34214784V.4501953L.04499817 .44218446V.39518739C.10699463 .39518739 .11399841 .39518739 .11399841 .3561554Z"/>
<path id="font_1_16" d="M.21998596 .32917787C.21998596 .34817506 .22099304 .34918214 .23498535 .36317445 .2749939 .40419007 .32699586 .41018678 .34899903 .41018678 .41600038 .41018678 .47200013 .34918214 .47200013 .22315979 .47200013 .08213806 .4019928 .030136109 .33699037 .030136109 .32299806 .030136109 .27598573 .030136109 .23098755 .08413696 .21998596 .09713745 .21998596 .09814453 .21998596 .11714172V.32917787M.21998596 .039138795C.2630005 .004135132 .30699159-.005859375 .34799195-.005859375 .49798585-.005859375 .59999087 .08413696 .59999087 .22315979 .59999087 .35617066 .5089874 .4501953 .36499024 .4501953 .2899933 .4501953 .23699951 .41918946 .21398926 .40118409V.4501953L.036987306 .44218446V.39518739C.09899902 .39518739 .10598755 .39518739 .10598755 .35717774V-.14733887H.036987306V-.19433594C.06498718-.19334412 .125-.19134522 .16299439-.19134522 .20199585-.19134522 .26098634-.19334412 .2889862-.19433594V-.14733887H.21998596V.039138795Z"/>
<path id="font_1_19" d="M.43798829 .072143558V-.005859375L.61499026 .0001373291V.0471344C.5529938 .0471344 .54599 .0471344 .54599 .086135867V.4501953L.36299134 .44218446V.39518739C.4249878 .39518739 .43199159 .39518739 .43199159 .3561859V.16514588C.43199159 .08314514 .3809967 .030136109 .30799867 .030136109 .23098755 .030136109 .22799683 .055130006 .22799683 .10914612V.4501953L.04499817 .44218446V.39518739C.10699463 .39518739 .11399841 .39518739 .11399841 .3561859V.12315369C.11399841 .01612854 .19499207-.005859375 .2939911-.005859375 .31999208-.005859375 .3919983-.005859375 .43798829 .072143558Z"/>
<path id="font_3_9" d="M.33299256 .076156619C.33699037 .036132814 .3639984-.005859375 .41099549-.005859375 .43199159-.005859375 .49299623 .008132935 .49299623 .089157108V.14518738H.46798707V.089157108C.46798707 .031143189 .44299317 .025131226 .43199159 .025131226 .39898683 .025131226 .394989 .07015991 .394989 .075149539V.27514649C.394989 .31707765 .394989 .3560791 .35899354 .39312745 .31999208 .43223573 .269989 .4482422 .22200012 .4482422 .13999939 .4482422 .070999149 .40115357 .070999149 .335083 .070999149 .30508424 .09098816 .28808595 .116989139 .28808595 .14498902 .28808595 .16299439 .30807496 .16299439 .33407594 .16299439 .3460846 .1579895 .3790741 .11199951 .38008119 .13899231 .41519166 .18798828 .426239 .21998596 .426239 .2689972 .426239 .32598878 .38710023 .32598878 .29808045V.26123048C.2749939 .2582245 .20498657 .25523377 .14199829 .22523499 .066986087 .1912384 .041992189 .13923645 .041992189 .09524536 .041992189 .014251709 .13899231-.0107421879 .20199585-.0107421879 .2679901-.010864258 .31399537 .029129029 .33299256 .076156619M.32598878 .24023438V.1401825C.32598878 .045135499 .2539978 .011138916 .20899964 .011138916 .1599884 .011138916 .11898804 .046142579 .11898804 .09616089 .11898804 .15118408 .16099549 .23422241 .32598878 .24023438Z"/>
<path id="font_3_18" d="M.16699219 .3323059V.4423828L.027999878 .43138124V.40037538C.09799194 .40037538 .10598755 .39337159 .10598755 .34431459V.076034549C.10598755 .0309906 .09498596 .0309906 .027999878 .0309906V0C.066986087 .0009918213 .11399841 .0029907227 .14199829 .0029907227 .18199158 .0029907227 .22898865 .0029907227 .2689972 0V.0309906H.24798584C.17399597 .0309906 .17199707 .042007448 .17199707 .07803345V.232193C.17199707 .33128358 .21398926 .42037965 .2899933 .42037965 .29699708 .42037965 .29899598 .42037965 .30099488 .41937257 .2979889 .41838075 .27799989 .4063568 .27799989 .38034059 .27799989 .35231019 .29899598 .33729554 .32099916 .33729554 .33898927 .33729554 .3639984 .3493042 .3639984 .3813324 .3639984 .41337586 .33299256 .4423828 .2899933 .4423828 .21699524 .4423828 .18099976 .37535096 .16699219 .3323059Z"/>
<path id="font_3_21" d="M.4149933 .33569337C.44099427 .39866639 .49198915 .3996582 .5079956 .3996582V.43066407C.4850006 .4286499 .45599366 .42765809 .43299867 .42765809 .4149933 .42765809 .36799623 .42965699 .34599305 .43066407V.3996582C.3769989 .39866639 .3929901 .3816681 .3929901 .35668946 .3929901 .34669496 .3919983 .34469605 .3869934 .33270265L.28599549 .08683777 .1749878 .35568238C.17098999 .36567689 .16899109 .36967469 .16899109 .3736725 .16899109 .3996582 .20599365 .3996582 .22499085 .3996582V.43066407C.19898987 .42965699 .1329956 .42765809 .115997318 .42765809 .08898926 .42765809 .04899597 .4286499 .018997193 .43066407V.3996582C.066986087 .3996582 .085998538 .3996582 .099990848 .36468507L.25-.00010681152C.24499512-.0131073 .23098755-.046081544 .22499085-.05908203 .20298767-.11405945 .1749878-.18309021 .11099243-.18309021 .10598755-.18309021 .08299255-.18309021 .06399536-.16506958 .09498596-.16105652 .102996829-.1390686 .102996829-.123062137 .102996829-.09706116 .083999637-.08105469 .06098938-.08105469 .040985109-.08105469 .018997193-.094055179 .018997193-.124069217 .018997193-.16906739 .06098938-.20507813 .11099243-.20507813 .17399597-.20507813 .21499634-.14805603 .23899842-.09106445L.4149933 .33569337Z"/>
<path id="font_4_4" d="M.1789856 .114868167C.13899231 .047973634 .099990848 .033981325 .055999757 .0309906 .04399109 .02999878 .034988405 .02999878 .034988405 .010986328 .034988405 .004989624 .039993287 0 .04798889 0 .07499695 0 .10598755 .0029907227 .13398743 .0029907227 .16699219 .0029907227 .20199585 0 .23399353 0 .23999024 0 .25299073 0 .25299073 .018997193 .25299073 .02999878 .24398804 .0309906 .23699951 .0309906 .21398926 .032989503 .18998719 .04096985 .18998719 .06593323 .18998719 .077926639 .19599915 .088897708 .20399475 .102890018L.27999879 .23068238H.5309906C.5329895 .2097168 .5469971 .07392883 .5469971 .063949588 .5469971 .033981325 .49499513 .0309906 .47499085 .0309906 .46099855 .0309906 .45098878 .0309906 .45098878 .010986328 .45098878 0 .46299745 0 .46499635 0 .5059967 0 .548996 .0029907227 .58999636 .0029907227 .61499026 .0029907227 .6779938 0 .7029877 0 .70899966 0 .72099307 0 .72099307 .019989014 .72099307 .0309906 .71099856 .0309906 .69799807 .0309906 .6359863 .0309906 .6359863 .037979127 .6329956 .06694031L.57199099 .691803C.56999209 .71180728 .56999209 .7158203 .5529938 .7158203 .5369873 .7158203 .5329895 .7088165 .5269928 .69880679L.1789856 .114868167M.29899598 .26168824 .49598695 .5917816 .5279999 .26168824H.29899598Z"/>
<path id="font_3_7" d="M.25498963-.25V-.21000672H.1579895V.70999148H.25498963V.75H.117996219V-.25H.25498963Z"/>
<path id="font_4_5" d="M.2579956 .68333438C.2579956 .6843262 .2579956 .69433596 .24499512 .69433596 .22200012 .69433596 .14898682 .6863251 .12298584 .6843262 .114990238 .68333438 .10398865 .6823273 .10398865 .6633301 .10398865 .6523285 .11399841 .6523285 .1289978 .6523285 .1769867 .6523285 .17799378 .6433258 .17799378 .6353302L.1749878 .6153259 .04899597 .11526489C.04598999 .104263309 .04399109 .09725952 .04399109 .08125305 .04399109 .024246216 .08799744-.0107421879 .1349945-.0107421879 .16799927-.0107421879 .19299317 .009246826 .20999146 .04525757 .22799683 .08325195 .23999024 .14126587 .23999024 .14326477 .23999024 .15327454 .23098755 .15327454 .22799683 .15327454 .21798706 .15327454 .21699524 .14926148 .21398926 .13526917 .19699097 .070251468 .17799378 .011245728 .13798523 .011245728 .10798645 .011245728 .10798645 .043258668 .10798645 .057250978 .10798645 .08125305 .10899353 .086257938 .11399841 .10525513L.2579956 .68333438Z"/>
<path id="font_4_1" d="M.19198609 .052993776C.19198609 .08198547 .16799927 .10598755 .13899231 .10598755 .10998535 .10598755 .085998538 .08198547 .085998538 .052993776 .085998538 .023986817 .10998535 0 .13899231 0 .16799927 0 .19198609 .023986817 .19198609 .052993776Z"/>
<path id="font_4_7" d="M.08799744 .059265138C.084991458 .044265748 .07899475 .021255494 .07899475 .01625061 .07899475-.0017547608 .09298706-.0107421879 .10798645-.0107421879 .11999512-.0107421879 .13798523-.002746582 .14498902 .01725769 .14698792 .021255494 .18099976 .15730286 .18499756 .17530823 .19299317 .20831299 .21099854 .27833558 .21699524 .30534364 .22099304 .31835938 .24899292 .36535646 .272995 .38734437 .2809906 .39434815 .30999757 .42037965 .35299684 .42037965 .3789978 .42037965 .3939972 .4083557 .394989 .4083557 .36499024 .40335084 .34298707 .37934876 .34298707 .35334779 .34298707 .33735658 .35398866 .31835938 .3809967 .31835938 .4079895 .31835938 .43598939 .34135438 .43598939 .37734986 .43598939 .41235353 .4039917 .4423828 .35299684 .4423828 .28799439 .4423828 .24398804 .39335633 .22499085 .36535646 .21699524 .4103546 .18099976 .4423828 .13398743 .4423828 .08799744 .4423828 .068984989 .40335084 .05999756 .38534547 .041992189 .35134889 .0289917 .29133607 .0289917 .28834535 .0289917 .27833558 .038986207 .27833558 .040985109 .27833558 .050994874 .27833558 .051986696 .27934266 .057998659 .30134584 .07499695 .37234498 .09498596 .42037965 .1309967 .42037965 .147995 .42037965 .1619873 .41235353 .1619873 .37435914 .1619873 .35334779 .15899658 .3423462 .1459961 .29034425L.08799744 .059265138Z"/>
<path id="font_3_8" d="M.15899658 .75H.021987915V.70999148H.11898804V-.21000672H.021987915V-.25H.15899658V.75Z"/>
<path id="font_1_5" d="M.798996 .33924867C.798996 .5552521 .6539917 .6972656 .43199159 .6972656 .20298767 .6972656 .06399536 .5492554 .06399536 .33924867 .06399536 .13224793 .20399475-.0107421879 .43099977-.0107421879 .6609955-.0107421879 .798996 .13424683 .798996 .33924867M.43099977 .03125C.37199403 .03125 .29899598 .059249879 .2579956 .1352539 .22499085 .19725037 .21699524 .2682495 .21699524 .3542633 .21699524 .41825868 .21998596 .5032654 .2639923 .57125857 .30499269 .6322632 .37199403 .6572571 .43099977 .6572571 .49499513 .6572571 .56399539 .6292572 .60398867 .56326296 .6419983 .49925233 .6459961 .42225648 .6459961 .3542633 .6459961 .28425599 .6419983 .19525147 .59999087 .12625122 .5549927 .053253175 .4850006 .03125 .43099977 .03125Z"/>
<path id="font_3_19" d="M.20799256 .19424439C.22999573 .19024658 .31199647 .17424011 .31199647 .102249149 .31199647 .051254274 .2769928 .011245728 .19898987 .011245728 .114990238 .011245728 .07899475 .06825256 .05999756 .15324402 .056991579 .1662445 .055999757 .17024231 .04598999 .17024231 .032989503 .17024231 .032989503 .16323853 .032989503 .14524842V.013244629C.032989503-.003753662 .032989503-.0107421879 .04399109-.0107421879 .04899597-.0107421879 .049987794-.009750366 .068984989 .009246826 .070999149 .011245728 .070999149 .013244629 .08898926 .03224182 .1329956-.009750366 .17799378-.0107421879 .19898987-.0107421879 .31399537-.0107421879 .3600006 .056243898 .3600006 .12825012 .3600006 .1812439 .32998658 .21124268 .31799317 .22323609 .2849884 .25523377 .24598694 .26324464 .20399475 .27124024 .147995 .28224183 .08099365 .2952423 .08099365 .35324098 .08099365 .38822938 .10699463 .42922975 .19299317 .42922975 .30299378 .42922975 .30799867 .3392334 .30999757 .3082428 .31098939 .2992401 .31999208 .2992401 .32199098 .2992401 .33499146 .2992401 .33499146 .304245 .33499146 .3232422V.4242401C.33499146 .4412384 .33499146 .4482422 .32398988 .4482422 .31900025 .4482422 .31698609 .4482422 .3039856 .43623353 .30099488 .43223573 .29100038 .42323304 .2869873 .42022706 .24899292 .4482422 .20799256 .4482422 .19299317 .4482422 .070999149 .4482422 .032989503 .38124085 .032989503 .3252411 .032989503 .29023744 .04899597 .26223756 .07598877 .24023438 .10798645 .21424866 .13598633 .2082367 .20799256 .19424439Z"/>
<path id="font_3_16" d="M.47099305 .21424866C.47099305 .34223939 .37098695 .4482422 .25 .4482422 .125 .4482422 .027999878 .3392334 .027999878 .21424866 .027999878 .085250858 .13198853-.0107421879 .24899292-.0107421879 .36999513-.0107421879 .47099305 .087249759 .47099305 .21424866M.25 .014251709C.20698548 .014251709 .16299439 .035247804 .13598633 .08125305 .11099243 .12524414 .11099243 .18624878 .11099243 .22224427 .11099243 .26124574 .11099243 .31523133 .1349945 .35923768 .1619873 .40522767 .20899964 .426239 .24899292 .426239 .29299928 .426239 .33599855 .40423585 .3619995 .36123658 .3880005 .3182373 .3880005 .26023866 .3880005 .22224427 .3880005 .18624878 .3880005 .13224793 .3659973 .08824158 .34399415 .04324341 .2999878 .014251709 .25 .014251709Z"/>
<path id="font_3_20" d="M.17298889 .3996582H.31599427V.43066407H.17298889V.6147156H.147995C.14698792 .5326996 .116989139 .42565919 .018997193 .42166139V.3996582H.10398865V.12416077C.10398865 .0012512207 .19699097-.0107421879 .23298645-.0107421879 .3039856-.0107421879 .33198548 .06021118 .33198548 .12416077V.18112183H.30699159V.12615967C.30699159 .052215578 .2769928 .014251709 .23999024 .014251709 .17298889 .014251709 .17298889 .10517883 .17298889 .122161868V.3996582Z"/>
<path id="font_3_12" d="M.11199951 .2524414C.117996219 .40126039 .20199585 .426239 .23599243 .426239 .33898927 .426239 .34899903 .2913971 .34899903 .2524414H.11199951M.11099243 .23144531H.3899994C.4119873 .23144531 .4149933 .23144531 .4149933 .2524414 .4149933 .35131837 .36099244 .4482422 .23599243 .4482422 .11999512 .4482422 .027999878 .34532167 .027999878 .22042847 .027999878 .08631897 .1329956-.0107421879 .24798584-.0107421879 .36999513-.0107421879 .4149933 .10032654 .4149933 .11933899 .4149933 .12934876 .40699769 .13134766 .4019928 .13134766 .3929901 .13134766 .3909912 .12535095 .3889923 .11734009 .35398866 .014251709 .2639923 .014251709 .2539978 .014251709 .20399475 .014251709 .1639862 .044281007 .14099121 .08131409 .11099243 .12934876 .11099243 .19540406 .11099243 .23144531Z"/>
<path id="font_3_11" d="M.37998963 .055252077V-.0107421879L.5269928 .00024414063V.03125C.45700074 .03125 .44898988 .038253786 .44898988 .087265018V.69433596L.30499269 .68333438V.6523285C.375 .6523285 .3829956 .6453247 .3829956 .596344V.38035584C.35398866 .41636659 .31098939 .4423828 .25698854 .4423828 .13899231 .4423828 .033996583 .3443451 .033996583 .21531677 .033996583 .088272098 .13198853-.0107421879 .24598694-.0107421879 .30999757-.0107421879 .35499574 .023254395 .37998963 .055252077M.37998963 .323349V.118270877C.37998963 .1002655 .37998963 .0982666 .36898805 .08126831 .33898927 .0332489 .2939911 .011245728 .25099183 .011245728 .20599365 .011245728 .16999817 .037246705 .1459961 .07527161 .11999512 .11627197 .116989139 .17329407 .116989139 .21430969 .116989139 .25131227 .11898804 .31134034 .147995 .35635377 .16899109 .38735963 .20698548 .42037965 .26098634 .42037965 .29599 .42037965 .33799745 .405365 .36898805 .36035157 .37998963 .34335328 .37998963 .34135438 .37998963 .323349Z"/>
<path id="font_3_13" d="M.1769867 .4423828 .036987306 .43138124V.40037538C.101989749 .40037538 .11099243 .3943634 .11099243 .34532167V.076034549C.11099243 .0309906 .099990848 .0309906 .032989503 .0309906V0C.06498718 .0009918213 .11898804 .0029907227 .14299011 .0029907227 .17799378 .0029907227 .21299744 .0009918213 .24699402 0V.0309906C.18099976 .0309906 .1769867 .035995485 .1769867 .075042728V.4423828M.18099976 .6159363C.18099976 .64793398 .1559906 .6689453 .12799073 .6689453 .09700012 .6689453 .07499695 .64193728 .07499695 .6159363 .07499695 .5889435 .09700012 .5629425 .12799073 .5629425 .1559906 .5629425 .18099976 .5839386 .18099976 .6159363Z"/>
<path id="font_3_15" d="M.10998535 .34429933V.076034549C.10998535 .0309906 .09899902 .0309906 .03199768 .0309906V0C.066986087 .0009918213 .117996219 .0029907227 .14498902 .0029907227 .17098999 .0029907227 .22299195 .0009918213 .25698854 0V.0309906C.18998719 .0309906 .1789856 .0309906 .1789856 .076034549V.2602234C.1789856 .36431886 .25 .42037965 .31399537 .42037965 .3769989 .42037965 .3880005 .36631776 .3880005 .30926515V.076034549C.3880005 .0309906 .3769989 .0309906 .30999757 .0309906V0C.34498597 .0009918213 .3959961 .0029907227 .4229889 .0029907227 .44898988 .0029907227 .5009918 .0009918213 .5349884 0V.0309906C.48298646 .0309906 .45799256 .0309906 .45700074 .061019899V.25221253C.45700074 .3383026 .45700074 .36932374 .42599488 .405365 .4119873 .42237855 .3789978 .4423828 .32099916 .4423828 .24798584 .4423828 .20098877 .39935304 .17298889 .33729554V.4423828L.03199768 .43138124V.40037538C.101989749 .4003601 .10998535 .39335633 .10998535 .34429933Z"/>
<path id="font_3_17" d="M.17199707 .37635804V.4423828L.027999878 .43138124V.40037538C.09899902 .40037538 .10598755 .3943634 .10598755 .35035707V-.11816406C.10598755-.16334534 .09498596-.16334534 .027999878-.16334534V-.19433594C.06199646-.19334412 .11399841-.19134522 .13999939-.19134522 .16699219-.19134522 .21798706-.19334412 .25299073-.19433594V-.16334534C.18598938-.16334534 .1749878-.16334534 .1749878-.11816406V.05026245 .059265138C.17999268 .043258668 .22200012-.0107421879 .2979889-.0107421879 .4169922-.0107421879 .5209961 .08728027 .5209961 .2163086 .5209961 .34335328 .42399598 .4423828 .31199647 .4423828 .23399353 .4423828 .19198609 .39837647 .17199707 .37635804M.1749878 .11428833V.33735658C.20399475 .3883667 .25299073 .41737367 .3039856 .41737367 .3769989 .41737367 .43798829 .3293457 .43798829 .2163086 .43798829 .09527588 .36799623 .011245728 .2939911 .011245728 .2539978 .011245728 .21598816 .03125 .18899536 .072265628 .1749878 .09327698 .1749878 .0942688 .1749878 .11428833Z"/>
<path id="font_3_14" d="M.1769867 .69433596 .032989503 .68333438V.6523285C.102996829 .6523285 .11099243 .6453247 .11099243 .5962982V.07601929C.11099243 .0309906 .099990848 .0309906 .032989503 .0309906V0C.06599426 .0009918213 .11898804 .0029907227 .14399719 .0029907227 .16899109 .0029907227 .21798706 .0009918213 .25498963 0V.0309906C.18798828 .0309906 .1769867 .0309906 .1769867 .07601929V.69433596Z"/>
<path id="font_3_10" d="M.116989139 .21801758C.116989139 .38093568 .19898987 .42323304 .2519989 .42323304 .26098634 .42323304 .32398988 .42222596 .35899354 .38594056 .31799317 .38293458 .31199647 .3529358 .31199647 .3399353 .31199647 .31393434 .32998658 .2939453 .35798646 .2939453 .38398744 .2939453 .4039917 .3109436 .4039917 .34094239 .4039917 .40911866 .32798768 .4482422 .25099183 .4482422 .12599182 .4482422 .033996583 .3399353 .033996583 .21601868 .033996583 .08816528 .1329956-.0107421879 .24899292-.0107421879 .3829956-.0107421879 .4149933 .10914612 .4149933 .119140628 .4149933 .12911988 .40499879 .12911988 .4019928 .12911988 .3929901 .12911988 .3909912 .12512207 .3889923 .119140628 .3600006 .026229859 .29499818 .014251709 .2579956 .014251709 .20498657 .014251709 .116989139 .0572052 .116989139 .21801758Z"/>
<path id="font_5_1" d="M.39898683 .62120059C.39898683 .65625 .3919983 .65625 .34999085 .65625 .28799439 .6061554 .20599365 .59213259 .12599182 .59213259H.101989749V.5361328H.12599182C.1659851 .5361328 .22698975 .54312136 .2689972 .5571289V.055999757H.11099243V0C.1599884 .0039978029 .27999879 .0039978029 .33399964 .0039978029 .36999513 .0039978029 .4059906 .0029907227 .44198609 .0029907227 .47200013 .0029907227 .5239868 .0019989014 .5529938 0V.055999757H.39898683V.62120059Z"/>
<path id="font_1_8" d="M.116989139 .44433595H.041992189V.3973236H.116989139V.04699707H.04798889V0C.08299255 .0009918213 .12799073 .0029907227 .17399597 .0029907227 .21199036 .0029907227 .27598573 .0029907227 .31199647 0V.04699707H.22499085V.3973236H.33999635V.44433595H.21899414V.54525759C.21899414 .65519717 .29499818 .6641846 .31999208 .6641846 .32499696 .6641846 .32998658 .6641846 .33699037 .66218569 .32199098 .65119937 .31399537 .63220217 .31399537 .6132202 .31399537 .57025149 .34899903 .5512543 .375 .5512543 .40499879 .5512543 .43699647 .57225039 .43699647 .6132202 .43699647 .65519717 .40098573 .7001953 .32299806 .7001953 .22499085 .7001953 .116989139 .65818789 .116989139 .54525759V.44433595Z"/>
<path id="font_6_1" d="M.673996 .3241577C.6879883 .33015443 .69400027 .3371582 .69400027 .3461609 .69400027 .35617066 .6899872 .36216737 .673996 .36917115L.12298584 .62919619C.10899353 .63619998 .10499573 .63619998 .102996829 .63619998 .09098816 .63619998 .08299255 .62719729 .08299255 .61621096 .08299255 .6042023 .09098816 .5991974 .101989749 .59420779L.6269989 .34716798 .10398865 .100128177C.083999637 .09112549 .08299255 .083114627 .08299255 .07711792 .08299255 .06611633 .09199524 .057113649 .102996829 .057113649 .10598755 .057113649 .10798645 .057113649 .12098694 .06411743L.673996 .3241577M.6589966-.13671875C.6759949-.13671875 .69400027-.13671875 .69400027-.11672974 .69400027-.096725467 .6729889-.096725467 .6579895-.096725467H.11898804C.10398865-.096725467 .08299255-.096725467 .08299255-.11672974 .08299255-.13671875 .100997928-.13671875 .117996219-.13671875H.6589966Z"/>
<path id="font_1_7" d="M.46199037 .2179718C.48399354 .2179718 .49398805 .2179718 .49398805 .2449646 .49398805 .27598573 .48799134 .34906007 .43798829 .3991089 .40098573 .43511964 .34799195 .453125 .2789917 .453125 .11898804 .453125 .03199768 .35005189 .03199768 .22497559 .03199768 .09107971 .13198853-.005859375 .29299928-.005859375 .45098878-.005859375 .49398805 .10006714 .49398805 .11706543 .49398805 .13504029 .47499085 .13504029 .46998597 .13504029 .45298768 .13504029 .45098878 .13005066 .44499208 .11405945 .42399598 .066101077 .36698915 .03413391 .3019867 .03413391 .16099549 .03413391 .1599884 .16700745 .1599884 .2179718H.46199037M.1599884 .25097657C.1619873 .29000855 .16299439 .3320465 .18399048 .36506654 .20999146 .4051056 .25 .41711427 .2789917 .41711427 .3959961 .41711427 .397995 .28599549 .39898683 .25097657H.1599884Z"/>
<path id="font_5_2" d="M.5779877 .2280426H.5149994C.5130005 .21603394 .5039978 .14500427 .48599244 .14099121 .46499635 .13699341 .40499879 .13699341 .38198854 .13699341H.24499512C.2999878 .17800904 .35598756 .21903992 .4139862 .25605775 .49499513 .3080902 .5779877 .3611145 .5779877 .46116639 .5779877 .5812378 .46499635 .65625 .30599977 .65625 .16999817 .65625 .067993167 .60324099 .067993167 .50819399 .067993167 .4501648 .114990238 .42915345 .14498902 .42915345 .18099976 .42915345 .22299195 .4541626 .22299195 .5071869 .22299195 .55522158 .18598938 .57522585 .18299866 .5762329 .21899414 .59924319 .2649994 .600235 .2769928 .600235 .3619995 .600235 .42900086 .5462189 .42900086 .4601593 .42900086 .38311769 .3769989 .3190918 .31900025 .2680664L.08099365 .056991579C.068984989 .04499817 .067993167 .04399109 .067993167 .023986817V0H.5439911L.5779877 .2280426Z"/>
<path id="font_5_3" d="M.3019867 .3251953C.42099 .3251953 .42599488 .23521424 .42599488 .18223572 .42599488 .14024353 .42599488 .039276124 .30599977 .039276124 .2789917 .039276124 .21598816 .044265748 .17298889 .071258548 .19400025 .08026123 .21998596 .103256229 .21998596 .14624024 .21998596 .19223023 .18699646 .22721863 .13899231 .22721863 .08898926 .22721863 .056991579 .19223023 .056991579 .14524842 .056991579 .043273927 .16799927-.01171875 .30999757-.01171875 .5189972-.01171875 .58898928 .09725952 .58898928 .18122864 .58898928 .25820924 .5279999 .32818605 .4139862 .35118104 .48599244 .3781891 .5529938 .4302063 .5529938 .5142212 .5529938 .5922394 .47299195 .65625 .31298829 .65625 .1769867 .65625 .09298706 .5892334 .09298706 .5062256 .09298706 .45620729 .1289978 .42919923 .16799927 .42919923 .21798706 .42919923 .24398804 .46621705 .24398804 .5042114 .24398804 .5552368 .20399475 .5732269 .19400025 .5762329 .23498535 .60624697 .28799439 .61024478 .30799867 .61024478 .4059906 .61024478 .4059906 .54522708 .4059906 .5172272 .4059906 .47120667 .38598634 .37919618 .28599549 .37419129 .26098634 .3731842 .23599243 .37219239 .22999573 .37019349 .21699524 .36618043 .21699524 .354187 .21699524 .3481903 .21699524 .3251953 .22999573 .3251953 .24899292 .3251953H.3019867Z"/>
<path id="font_1_6" d="M.41799928 .042999269V-.006011963L.6009979 0V.04699707C.5389862 .04699707 .5319977 .04699707 .5319977 .086013797V.69433596L.35499574 .6863251V.639328C.4169922 .639328 .42399598 .639328 .42399598 .600296V.40518189C.37399293 .44418336 .32199098 .4501953 .2889862 .4501953 .14299011 .4501953 .037994386 .36218263 .037994386 .22116089 .037994386 .089141849 .12998963-.005859375 .27799989-.005859375 .33898927-.006011963 .3869934 .017990113 .41799928 .042999269M.41799928 .35316468V.103027347C.40499879 .085006717 .3639984 .02999878 .28799439 .02999878 .1659851 .02999878 .1659851 .15104676 .1659851 .2210846 .1659851 .26911927 .1659851 .32313539 .19198609 .36216737 .22099304 .40419007 .2679901 .41418458 .29899598 .41418458 .35598756 .41418458 .3959961 .38217164 .41799928 .35316468Z"/>
<path id="font_5_4" d="M.60598757 .15394593V.20996094H.49699403V.62709048C.49699403 .6571045 .49198915 .6621094 .46199037 .6621094H.44699098C.42799378 .6621094 .41999818 .6621094 .40699769 .6470947L.039993287 .20996094V.15394593H.3600006V.055999757H.23599243V0C.2849884 .0039978029 .375 .0039978029 .4269867 .0039978029 .44898988 .0039978029 .58099368 .0019989014 .60598757 0V.055999757H.49699403V.15394593H.60598757M.37298585 .5240631V.20996094H.10899353L.37298585 .5240631Z"/>
<path id="font_4_6" d="M.08799744 .059265138C.084991458 .044265748 .07899475 .021255494 .07899475 .01625061 .07899475-.0017547608 .09298706-.0107421879 .10798645-.0107421879 .11999512-.0107421879 .13798523-.002746582 .14498902 .01725769 .1459961 .019256592 .1579895 .06626892 .1639862 .091278079L.18598938 .18130493C.19198609 .2033081 .19799805 .22531128 .20298767 .24832154 .20698548 .26531983 .21499634 .29434205 .21598816 .29833985 .23098755 .3293457 .28399659 .42037965 .3789978 .42037965 .42399598 .42037965 .43299867 .38336183 .43299867 .35035707 .43299867 .3253479 .42599488 .29733277 .41799928 .26733399L.3899994 .1512909 .36999513 .07527161C.3659973 .055267335 .35699464 .021255494 .35699464 .01625061 .35699464-.0017547608 .37098695-.0107421879 .38598634-.0107421879 .4169922-.0107421879 .4229889 .014251709 .43099977 .04626465 .44499208 .10227966 .48199464 .24832154 .4909973 .28733827 .49398805 .30033876 .5469971 .42037965 .6559906 .42037965 .69898989 .42037965 .70999148 .3863678 .70999148 .35035707 .70999148 .29333497 .66799929 .17930603 .647995 .12628174 .6389923 .10227966 .6349945 .091278079 .6349945 .0712738 .6349945 .024261475 .66999819-.0107421879 .71699526-.0107421879 .8109894-.0107421879 .84799197 .13528443 .84799197 .14329529 .84799197 .1532898 .83898928 .1532898 .83599856 .1532898 .82598879 .1532898 .82598879 .15029907 .82099917 .13528443 .80599978 .08227539 .7739868 .011245728 .71899417 .011245728 .70199587 .011245728 .69499209 .021255494 .69499209 .044265748 .69499209 .0692749 .70399478 .09327698 .71299746 .11528015 .7319946 .16729737 .7739868 .27833558 .7739868 .3353424 .7739868 .4003601 .73399356 .4423828 .6589966 .4423828 .58399966 .4423828 .5329895 .3983612 .49598695 .34535218 .49499513 .35835267 .49198915 .3923645 .46398927 .41636659 .43899537 .43737794 .40699769 .4423828 .38198854 .4423828 .2919922 .4423828 .24299622 .37835694 .22599793 .35534669 .22099304 .41236878 .1789856 .4423828 .13398743 .4423828 .08799744 .4423828 .068984989 .4033661 .05999756 .38536073 .041992189 .35035707 .0289917 .29133607 .0289917 .28833009 .0289917 .27833558 .038986207 .27833558 .040985109 .27833558 .050994874 .27833558 .051986696 .2793274 .057998659 .30133058 .07499695 .37236024 .09498596 .42037965 .1309967 .42037965 .14698792 .42037965 .1619873 .41236878 .1619873 .37435914 .1619873 .35334779 .15899658 .3423462 .1459961 .29032899L.08799744 .059265138Z"/>
<path id="font_6_2" d="M.9079895 .23046875C.9259949 .23046875 .94400027 .23046875 .94400027 .25045777 .94400027 .27046205 .9259949 .27046205 .9079895 .27046205H.16499329C.21998596 .31245423 .24699402 .3534546 .25498963 .36645509 .2999878 .43545533 .30799867 .49845887 .30799867 .49946595 .30799867 .51145938 .29599 .51145938 .28799439 .51145938 .2709961 .51145938 .269989 .50946047 .2659912 .49145509 .24299622 .39346314 .18399048 .31045533 .070999149 .26345826 .05999756 .25946046 .055999757 .25746156 .055999757 .25045777 .055999757 .24345398 .06098938 .24145508 .070999149 .23745728 .1749878 .19445801 .24198914 .11645508 .2669983 .0044555666 .269989-.007537842 .2709961-.010543823 .28799439-.010543823 .29599-.010543823 .30799867-.010543823 .30799867 .0014648438 .30799867 .0034637452 .29899598 .066467288 .25698854 .13345337 .23699951 .1634674 .20799256 .19845581 .16499329 .23046875H.9079895Z"/>
<path id="font_6_3" d="M.38598634-.25C.40098573-.25 .42199708-.25 .42199708-.23001099 .42199708-.21000672 .40098573-.21000672 .38598634-.21000672H.21398926V.71398928C.21398926 .7319946 .21398926 .75 .19400025 .75 .17399597 .75 .17399597 .72898867 .17399597 .71398928V-.21400452C.17399597-.2460022 .17799378-.25 .20999146-.25H.38598634Z"/>
<path id="font_3_1" d="M.33099366-.2400055C.33099366-.23701477 .33099366-.23500061 .31399537-.21800232 .18899536-.0920105 .15699768 .09700012 .15699768 .25 .15699768 .42399598 .19499207 .59799197 .31799317 .72299197 .33099366 .73498538 .33099366 .7369995 .33099366 .73999026 .33099366 .746994 .32699586 .75 .32099916 .75 .31098939 .75 .22099304 .6819916 .1619873 .5549927 .11099243 .44499208 .09899902 .33399964 .09899902 .25 .09899902 .17199707 .10998535 .050994874 .16499329-.06201172 .22499085-.18501282 .31098939-.25 .32099916-.25 .32699586-.25 .33099366-.24700928 .33099366-.2400055Z"/>
<path id="font_3_3" d="M.40899659 .23046875H.6879883C.70199587 .23046875 .72099307 .23046875 .72099307 .25045777 .72099307 .27046205 .70199587 .27046205 .6879883 .27046205H.40899659V.5500183C.40899659 .56399539 .40899659 .5830078 .3889923 .5830078 .36898805 .5830078 .36898805 .56399539 .36898805 .5500183V.27046205H.08898926C.07499695 .27046205 .055999757 .27046205 .055999757 .25045777 .055999757 .23046875 .07499695 .23046875 .08898926 .23046875H.36898805V-.05000305C.36898805-.06401062 .36898805-.08300781 .3889923-.08300781 .40899659-.08300781 .40899659-.06401062 .40899659-.05000305V.23046875Z"/>
<path id="font_3_2" d="M.2889862 .25C.2889862 .32798768 .27799989 .44898988 .22299195 .56199648 .16299439 .68499758 .07699585 .75 .066986087 .75 .06098938 .75 .056991579 .74598696 .056991579 .73999026 .056991579 .7369995 .056991579 .73498538 .07598877 .71699526 .17399597 .6179962 .23098755 .45899964 .23098755 .25 .23098755 .07899475 .19400025-.09700012 .069992069-.2230072 .056991579-.23500061 .056991579-.23701477 .056991579-.2400055 .056991579-.2460022 .06098938-.25 .066986087-.25 .07699585-.25 .16699219-.18200684 .22599793-.055007936 .2769928 .054992677 .2889862 .16600037 .2889862 .25Z"/>
<path id="font_4_3" d="M.43899537 .71199038C.44400025 .72499087 .44400025 .72898867 .44400025 .7299957 .44400025 .7409973 .43499757 .75 .42399598 .75 .4169922 .75 .4099884 .746994 .40699769 .7409973L.05999756-.21200562C.054992677-.2250061 .054992677-.2290039 .054992677-.23001099 .054992677-.24101258 .06399536-.25 .07499695-.25 .08799744-.25 .09098816-.24301148 .09700012-.22601319L.43899537 .71199038Z"/>
<path id="font_3_5" d="M.1269989 .07699585 .23298645 .18003845C.3889923 .31811524 .44898988 .3721466 .44898988 .47216798 .44898988 .5860901 .35899354 .6660156 .23699951 .6660156 .12399292 .6660156 .049987794 .57411196 .049987794 .48516847 .049987794 .4291687 .099990848 .4291687 .102996829 .4291687 .11999512 .4291687 .15499878 .44117738 .15499878 .48217774 .15499878 .5081787 .13699341 .5341797 .101989749 .5341797 .09399414 .5341797 .09199524 .5341797 .08898926 .5331726 .11199951 .59806826 .1659851 .63500979 .22399903 .63500979 .31498719 .63500979 .35798646 .5541382 .35798646 .47216798 .35798646 .39215089 .30799867 .31311036 .25299073 .25108338L.06098938 .036987306C.049987794 .025985718 .049987794 .023986817 .049987794 0H.42099L.44898988 .17404175H.42399598C.4189911 .14402771 .4119873 .1000061 .4019928 .084991458 .394989 .07699585 .32899476 .07699585 .30699159 .07699585H.1269989Z"/>
<path id="font_6_4" d="M.2689972 .71398928C.2689972 .7319946 .2689972 .75 .24899292 .75 .22898865 .75 .22898865 .72898867 .22898865 .71398928V-.21000672H.056991579C.041992189-.21000672 .020996094-.21000672 .020996094-.23001099 .020996094-.25 .041992189-.25 .056991579-.25H.23399353C.2659912-.25 .2689972-.24700928 .2689972-.21400452V.71398928Z"/>
<path id="font_3_6" d="M.19198609 .37765504C.19198609 .406662 .16799927 .43066407 .13899231 .43066407 .10998535 .43066407 .085998538 .406662 .085998538 .37765504 .085998538 .34866334 .10998535 .32466126 .13899231 .32466126 .16799927 .32466126 .19198609 .34866334 .19198609 .37765504M.17298889 .010986328C.17298889-.017044068 .17298889-.095199588 .10899353-.1693573 .101989749-.17736817 .101989749-.17936707 .101989749-.18237305 .101989749-.18936157 .10699463-.19335938 .11199951-.19335938 .12298584-.19335938 .19499207-.11325073 .19499207 .0029907227 .19499207 .03199768 .19299317 .10598755 .13899231 .10598755 .10398865 .10598755 .085998538 .07899475 .085998538 .052993776 .085998538 .026992798 .102996829 0 .13899231 0 .14399719 0 .1459961 0 .14698792 .0009918213 .1539917 .0019989014 .16499329 .0039978029 .17298889 .010986328Z"/>
<path id="font_5_5" d="M.18899536 .49620057C.22499085 .49121095 .25099183 .49121095 .2630005 .49121095 .2869873 .49121095 .35598756 .49121095 .42999269 .535202 .45899964 .5522003 .5279999 .60321047 .5279999 .63323977 .5279999 .63723757 .5279999 .65625 .5099945 .65625 .5079956 .65625 .5059967 .65625 .49398805 .65223696 .42799378 .6302185 .36898805 .62420657 .32299806 .62420657 .28199769 .62420657 .21998596 .6292267 .1539917 .6512451 .13999939 .65625 .13798523 .65625 .13598633 .65625 .117996219 .65625 .117996219 .64024356 .117996219 .6252136V.32929994C.117996219 .3093109 .117996219 .29533387 .14698792 .29533387 .15699768 .29533387 .1639862 .29533387 .17199707 .30332948 .19099427 .32429505 .22799683 .3642578 .32299806 .3642578 .4269867 .3642578 .4269867 .277359 .4269867 .20541382 .4269867 .13841248 .4269867 .039276124 .2889862 .039276124 .24198914 .039276124 .18998719 .05532837 .16099549 .088409427 .21099854 .10140991 .21499634 .14341736 .21499634 .15841675 .21499634 .20741272 .1769867 .23242188 .14199829 .23242188 .10598755 .23242188 .067993167 .2084198 .067993167 .15740967 .067993167 .06535339 .1579895-.01171875 .29299928-.01171875 .48199464-.01171875 .5779877 .088409427 .5779877 .20141602 .5779877 .30732728 .5 .4102478 .32798768 .4102478 .2889862 .4102478 .23699951 .40524293 .18899536 .37724305V.49620057Z"/>
<path id="font_4_2" d="M.20298767 .0009918213C.20298767 .066986087 .17799378 .10598755 .13899231 .10598755 .10598755 .10598755 .085998538 .08099365 .085998538 .052993776 .085998538 .025985718 .10598755 0 .13899231 0 .15098572 0 .1639862 .0039978029 .17399597 .0129852299 .1769867 .01499939 .17799378 .015991211 .1789856 .015991211 .17999268 .015991211 .18099976 .01499939 .18099976 .0009918213 .18099976-.07316589 .1459961-.13328552 .11299133-.16635132 .101989749-.17736817 .101989749-.17936707 .101989749-.18237305 .101989749-.18936157 .10699463-.19335938 .11199951-.19335938 .12298584-.19335938 .20298767-.116256717 .20298767 .0009918213Z"/>
<path id="font_5_6" d="M.20399475 .34303285C.20399475 .41101075 .20799256 .4881134 .24398804 .53811648 .29299928 .6072235 .37199403 .61024478 .3929901 .61024478 .42399598 .61024478 .44999696 .6011963 .46499635 .5891266 .43598939 .578125 .41799928 .55311587 .41799928 .52211 .41799928 .4841156 .44499208 .453125 .4869995 .453125 .5279999 .453125 .5569916 .48112489 .5569916 .52412417 .5569916 .5851135 .5169983 .65625 .3909912 .65625 .22200012 .65625 .056991579 .5541229 .056991579 .3180542 .056991579 .1831665 .09298706-.01171875 .32699586-.01171875 .4869995-.01171875 .58898928 .07424927 .58898928 .20614624 .58898928 .3380432 .4869995 .42001344 .34399415 .42001344 .32199098 .42001344 .2539978 .42001344 .20399475 .34303285M.32598878 .039276124C.20698548 .039276124 .20599365 .15818787 .20599365 .21913147 .20599365 .29107667 .24699402 .37402345 .33299256 .37402345 .44198609 .37402345 .44198609 .29808045 .44198609 .20713806 .44198609 .114212039 .44198609 .039276124 .32598878 .039276124Z"/>
<path id="font_3_4" d="M.2939911 .64004519C.2939911 .66400149 .2939911 .6660156 .2709961 .6660156 .20899964 .60227969 .12098694 .60227969 .08898926 .60227969V.57128909C.10899353 .57128909 .16799927 .57128909 .21998596 .5972748V.07902527C.21998596 .042999269 .21699524 .0309906 .1269989 .0309906H.09498596V0C.12998963 .0029907227 .21699524 .0029907227 .25698854 .0029907227 .29699708 .0029907227 .38398744 .0029907227 .4189911 0V.0309906H.3869934C.29699708 .0309906 .2939911 .041992189 .2939911 .07902527V.64004519Z"/>
<path id="font_5_7" d="M.37298585 .64453127C.34899903 .6455231 .32598878 .647522 .3019867 .64852908L.23298645 .6515198C.22599793 .65052798 .22399903 .65052798 .21798706 .65052798 .17999268 .65052798 .17799378 .66352847 .17599488 .67453H.11299133L.07499695 .4164734H.13798523C.1459961 .47351075 .15899658 .5015259 .16899109 .5025177 .17199707 .5035248 .21199036 .5075226 .28199769 .5075226H.44499208C.41799928 .47750855 .40499879 .46650697 .37098695 .43048097 .30299378 .3574524 .21899414 .21838379 .21899414 .06530762 .21899414-.01171875 .2829895-.01171875 .28799439-.01171875 .31999208-.01171875 .33699037 .0062713625 .34199525 .011276245 .35798646 .030288697 .35798646 .040283204 .35798646 .10733032 .35798646 .2684021 .3869934 .3574524 .44699098 .41848756L.61698916 .5935211C.61898806 .5965271 .62098696 .5995178 .621994 .6025238 .6239929 .6055298 .6239929 .6075287 .6239929 .64453127H.37298585Z"/>
</defs>
<path transform="matrix(1,0,0,-1,3.985,7.371994)" stroke-width=".797" stroke-linecap="butt" stroke-miterlimit="10" stroke-linejoin="miter" fill="none" stroke="#000000" d="M0 0H343.711"/>
<use data-text="A" xlink:href="#font_1_3" transform="matrix(9.9626,0,0,-9.9626,11.457,16.681)"/>
<use data-text="l" xlink:href="#font_1_12" transform="matrix(9.9626,0,0,-9.9626,20.114499,16.681)"/>
<use data-text="g" xlink:href="#font_1_9" transform="matrix(9.9626,0,0,-9.9626,23.292569,16.681)"/>
<use data-text="o" xlink:href="#font_1_15" transform="matrix(9.9626,0,0,-9.9626,29.021063,16.681)"/>
<use data-text="r" xlink:href="#font_1_17" transform="matrix(9.9626,0,0,-9.9626,34.749559,16.681)"/>
<use data-text="i" xlink:href="#font_1_11" transform="matrix(9.9626,0,0,-9.9626,39.471834,16.681)"/>
<use data-text="t" xlink:href="#font_1_18" transform="matrix(9.9626,0,0,-9.9626,42.649904,16.681)"/>
<use data-text="h" xlink:href="#font_1_10" transform="matrix(9.9626,0,0,-9.9626,47.103185,16.681)"/>
<use data-text="m" xlink:href="#font_1_13" transform="matrix(9.9626,0,0,-9.9626,53.469285,16.681)"/>
<use data-text="1" xlink:href="#font_1_1" transform="matrix(9.9626,0,0,-9.9626,66.839099,16.681)"/>
<use data-text=":" xlink:href="#font_1_2" transform="matrix(9.9626,0,0,-9.9626,72.56759,16.681)"/>
<use data-text="M" xlink:href="#font_2_1" transform="matrix(9.9626,0,0,-9.9626,79.078,16.681)"/>
<use data-text="e" xlink:href="#font_2_3" transform="matrix(9.9626,0,0,-9.9626,88.931018,16.681)"/>
<use data-text="r" xlink:href="#font_2_6" transform="matrix(9.9626,0,0,-9.9626,94.49014,16.681)"/>
<use data-text="g" xlink:href="#font_2_4" transform="matrix(9.9626,0,0,-9.9626,100.26845,16.681)"/>
<use data-text="e" xlink:href="#font_2_3" transform="matrix(9.9626,0,0,-9.9626,106.65447,16.681)"/>
<use data-text="S" xlink:href="#font_2_2" transform="matrix(9.9626,0,0,-9.9626,112.2136,16.681)"/>
<use data-text="o" xlink:href="#font_2_5" transform="matrix(9.9626,0,0,-9.9626,118.30075,16.681)"/>
<use data-text="r" xlink:href="#font_2_6" transform="matrix(9.9626,0,0,-9.9626,124.63696,16.681)"/>
<use data-text="t" xlink:href="#font_2_7" transform="matrix(9.9626,0,0,-9.9626,129.96695,16.681)"/>
<path transform="matrix(1,0,0,-1,3.985,21.010003)" stroke-width=".797" stroke-linecap="butt" stroke-miterlimit="10" stroke-linejoin="miter" fill="none" stroke="#000000" d="M0 0H343.711"/>
<use data-text="I" xlink:href="#font_1_4" transform="matrix(9.9626,0,0,-9.9626,18.929,30.873002)"/>
<use data-text="n" xlink:href="#font_1_14" transform="matrix(9.9626,0,0,-9.9626,23.272694,30.873002)"/>
<use data-text="p" xlink:href="#font_1_16" transform="matrix(9.9626,0,0,-9.9626,29.638796,30.873002)"/>
<use data-text="u" xlink:href="#font_1_19" transform="matrix(9.9626,0,0,-9.9626,36.004899,30.873002)"/>
<use data-text="t" xlink:href="#font_1_18" transform="matrix(9.9626,0,0,-9.9626,42.371,30.873002)"/>
<use data-text=":" xlink:href="#font_1_2" transform="matrix(9.9626,0,0,-9.9626,46.82428,30.873002)"/>
<use data-text="a" xlink:href="#font_3_9" transform="matrix(9.9626,0,0,-9.9626,54.435,30.873002)"/>
<use data-text="r" xlink:href="#font_3_18" transform="matrix(9.9626,0,0,-9.9626,59.4163,30.873002)"/>
<use data-text="r" xlink:href="#font_3_18" transform="matrix(9.9626,0,0,-9.9626,63.32164,30.873002)"/>
<use data-text="a" xlink:href="#font_3_9" transform="matrix(9.9626,0,0,-9.9626,67.22698,30.873002)"/>
<use data-text="y" xlink:href="#font_3_21" transform="matrix(9.9626,0,0,-9.9626,71.92933,30.873002)"/>
<use data-text="A" xlink:href="#font_4_4" transform="matrix(9.9626,0,0,-9.9626,80.504,30.873002)"/>
<use data-text="[" xlink:href="#font_3_7" transform="matrix(9.9626,0,0,-9.9626,87.976,30.873002)"/>
<use data-text="l" xlink:href="#font_4_5" transform="matrix(9.9626,0,0,-9.9626,90.743,30.873002)"/>
<use data-text="." xlink:href="#font_4_1" transform="matrix(9.9626,0,0,-9.9626,95.564899,30.873002)"/>
<use data-text="." xlink:href="#font_4_1" transform="matrix(9.9626,0,0,-9.9626,99.99825,30.873002)"/>
<use data-text="." xlink:href="#font_4_1" transform="matrix(9.9626,0,0,-9.9626,104.43161,30.873002)"/>
<use data-text="r" xlink:href="#font_4_7" transform="matrix(9.9626,0,0,-9.9626,108.855,30.873002)"/>
<use data-text="]" xlink:href="#font_3_8" transform="matrix(9.9626,0,0,-9.9626,113.627,30.873002)"/>
<use data-text="O" xlink:href="#font_1_5" transform="matrix(9.9626,0,0,-9.9626,18.929,42.828004)"/>
<use data-text="u" xlink:href="#font_1_19" transform="matrix(9.9626,0,0,-9.9626,27.536686,42.828004)"/>
<use data-text="t" xlink:href="#font_1_18" transform="matrix(9.9626,0,0,-9.9626,33.902788,42.828004)"/>
<use data-text="p" xlink:href="#font_1_16" transform="matrix(9.9626,0,0,-9.9626,38.356069,42.828004)"/>
<use data-text="u" xlink:href="#font_1_19" transform="matrix(9.9626,0,0,-9.9626,44.722169,42.828004)"/>
<use data-text="t" xlink:href="#font_1_18" transform="matrix(9.9626,0,0,-9.9626,51.08827,42.828004)"/>
<use data-text=":" xlink:href="#font_1_2" transform="matrix(9.9626,0,0,-9.9626,55.54155,42.828004)"/>
<use data-text="A" xlink:href="#font_4_4" transform="matrix(9.9626,0,0,-9.9626,63.152,42.828004)"/>
<use data-text="s" xlink:href="#font_3_19" transform="matrix(9.9626,0,0,-9.9626,73.945,42.828004)"/>
<use data-text="o" xlink:href="#font_3_16" transform="matrix(9.9626,0,0,-9.9626,77.87026,42.828004)"/>
<use data-text="r" xlink:href="#font_3_18" transform="matrix(9.9626,0,0,-9.9626,82.85156,42.828004)"/>
<use data-text="t" xlink:href="#font_3_20" transform="matrix(9.9626,0,0,-9.9626,86.756908,42.828004)"/>
<use data-text="e" xlink:href="#font_3_12" transform="matrix(9.9626,0,0,-9.9626,90.632358,42.828004)"/>
<use data-text="d" xlink:href="#font_3_11" transform="matrix(9.9626,0,0,-9.9626,95.05575,42.828004)"/>
<use data-text="i" xlink:href="#font_3_13" transform="matrix(9.9626,0,0,-9.9626,103.9125,42.828004)"/>
<use data-text="n" xlink:href="#font_3_15" transform="matrix(9.9626,0,0,-9.9626,106.6821,42.828004)"/>
<use data-text="p" xlink:href="#font_3_17" transform="matrix(9.9626,0,0,-9.9626,115.54881,42.828004)"/>
<use data-text="l" xlink:href="#font_3_14" transform="matrix(9.9626,0,0,-9.9626,121.08802,42.828004)"/>
<use data-text="a" xlink:href="#font_3_9" transform="matrix(9.9626,0,0,-9.9626,123.85762,42.828004)"/>
<use data-text="c" xlink:href="#font_3_10" transform="matrix(9.9626,0,0,-9.9626,128.83892,42.828004)"/>
<use data-text="e" xlink:href="#font_3_12" transform="matrix(9.9626,0,0,-9.9626,133.26232,42.828004)"/>
<use data-text="1" xlink:href="#font_5_1" transform="matrix(6.9738,0,0,-6.9738,9.433998,54.783006)"/>
<use data-text="i" xlink:href="#font_1_11" transform="matrix(9.9626,0,0,-9.9626,18.928997,54.783006)"/>
<use data-text="f" xlink:href="#font_1_8" transform="matrix(9.9626,0,0,-9.9626,22.107068,54.783006)"/>
<use data-text="l" xlink:href="#font_4_5" transform="matrix(9.9626,0,0,-9.9626,30.018998,54.783006)"/>
<use data-text="&#x2265;" xlink:href="#font_6_1" transform="matrix(9.9626,0,0,-9.9626,35.954999,54.783006)"/>
<use data-text="r" xlink:href="#font_4_7" transform="matrix(9.9626,0,0,-9.9626,46.470998,54.783006)"/>
<use data-text="t" xlink:href="#font_1_18" transform="matrix(9.9626,0,0,-9.9626,54.563997,54.783006)"/>
<use data-text="h" xlink:href="#font_1_10" transform="matrix(9.9626,0,0,-9.9626,59.017278,54.783006)"/>
<use data-text="e" xlink:href="#font_1_7" transform="matrix(9.9626,0,0,-9.9626,65.38338,54.783006)"/>
<use data-text="n" xlink:href="#font_1_14" transform="matrix(9.9626,0,0,-9.9626,70.63367,54.783006)"/>
<path transform="matrix(1,0,0,-1,24.11,70.325)" stroke-width=".398" stroke-linecap="butt" stroke-miterlimit="10" stroke-linejoin="miter" fill="none" stroke="#000000" d="M0 0V11.955"/>
<use data-text="2" xlink:href="#font_5_2" transform="matrix(6.9738,0,0,-6.9738,9.833,66.738)"/>
<use data-text="r" xlink:href="#font_1_17" transform="matrix(9.9626,0,0,-9.9626,34.271,66.738)"/>
<use data-text="e" xlink:href="#font_1_7" transform="matrix(9.9626,0,0,-9.9626,38.99327,66.738)"/>
<use data-text="t" xlink:href="#font_1_18" transform="matrix(9.9626,0,0,-9.9626,44.24356,66.738)"/>
<use data-text="u" xlink:href="#font_1_19" transform="matrix(9.9626,0,0,-9.9626,48.696844,66.738)"/>
<use data-text="r" xlink:href="#font_1_17" transform="matrix(9.9626,0,0,-9.9626,55.062944,66.738)"/>
<use data-text="n" xlink:href="#font_1_14" transform="matrix(9.9626,0,0,-9.9626,59.785219,66.738)"/>
<use data-text="3" xlink:href="#font_5_3" transform="matrix(6.9738,0,0,-6.9738,9.434,78.693)"/>
<use data-text="e" xlink:href="#font_1_7" transform="matrix(9.9626,0,0,-9.9626,18.929,78.693)"/>
<use data-text="n" xlink:href="#font_1_14" transform="matrix(9.9626,0,0,-9.9626,24.17929,78.693)"/>
<use data-text="d" xlink:href="#font_1_6" transform="matrix(9.9626,0,0,-9.9626,30.545393,78.693)"/>
<use data-text="4" xlink:href="#font_5_4" transform="matrix(6.9738,0,0,-6.9738,9.434001,90.648)"/>
<use data-text="m" xlink:href="#font_4_6" transform="matrix(9.9626,0,0,-9.9626,18.929,90.648)"/>
<use data-text="&#x2190;" xlink:href="#font_6_2" transform="matrix(9.9626,0,0,-9.9626,30.444,90.648)"/>
<use data-text="&#x230a;" xlink:href="#font_6_3" transform="matrix(9.9626,0,0,-9.9626,43.176206,90.648)"/>
<use data-text="(" xlink:href="#font_3_1" transform="matrix(9.9626,0,0,-9.9626,47.602,90.648)"/>
<use data-text="l" xlink:href="#font_4_5" transform="matrix(9.9626,0,0,-9.9626,51.476,90.648)"/>
<use data-text="+" xlink:href="#font_3_3" transform="matrix(9.9626,0,0,-9.9626,56.858,90.648)"/>
<use data-text="r" xlink:href="#font_4_7" transform="matrix(9.9626,0,0,-9.9626,66.821,90.648)"/>
<use data-text=")" xlink:href="#font_3_2" transform="matrix(9.9626,0,0,-9.9626,71.593,90.648)"/>
<use data-text="/" xlink:href="#font_4_3" transform="matrix(9.9626,0,0,-9.9626,75.467,90.648)"/>
<use data-text="2" xlink:href="#font_3_5" transform="matrix(9.9626,0,0,-9.9626,80.448009,90.648)"/>
<use data-text="&#x230b;" xlink:href="#font_6_4" transform="matrix(9.9626,0,0,-9.9626,85.43001,90.648)"/>
<use data-text=";" xlink:href="#font_3_6" transform="matrix(9.9626,0,0,-9.9626,89.85701,90.648)"/>
<use data-text="5" xlink:href="#font_5_5" transform="matrix(6.9738,0,0,-6.9738,9.434013,102.604007)"/>
<use data-text="M" xlink:href="#font_2_1" transform="matrix(9.9626,0,0,-9.9626,18.929013,102.604007)"/>
<use data-text="e" xlink:href="#font_2_3" transform="matrix(9.9626,0,0,-9.9626,28.782025,102.604007)"/>
<use data-text="r" xlink:href="#font_2_6" transform="matrix(9.9626,0,0,-9.9626,34.341157,102.604007)"/>
<use data-text="g" xlink:href="#font_2_4" transform="matrix(9.9626,0,0,-9.9626,40.119466,102.604007)"/>
<use data-text="e" xlink:href="#font_2_3" transform="matrix(9.9626,0,0,-9.9626,46.505495,102.604007)"/>
<use data-text="S" xlink:href="#font_2_2" transform="matrix(9.9626,0,0,-9.9626,52.064626,102.604007)"/>
<use data-text="o" xlink:href="#font_2_5" transform="matrix(9.9626,0,0,-9.9626,58.15177,102.604007)"/>
<use data-text="r" xlink:href="#font_2_6" transform="matrix(9.9626,0,0,-9.9626,64.48798,102.604007)"/>
<use data-text="t" xlink:href="#font_2_7" transform="matrix(9.9626,0,0,-9.9626,69.81797,102.604007)"/>
<use data-text="(" xlink:href="#font_3_1" transform="matrix(9.9626,0,0,-9.9626,75.70502,102.604007)"/>
<use data-text="A" xlink:href="#font_4_4" transform="matrix(9.9626,0,0,-9.9626,79.57902,102.604007)"/>
<use data-text="," xlink:href="#font_4_2" transform="matrix(9.9626,0,0,-9.9626,87.050968,102.604007)"/>
<use data-text="l" xlink:href="#font_4_5" transform="matrix(9.9626,0,0,-9.9626,91.48432,102.604007)"/>
<use data-text="," xlink:href="#font_4_2" transform="matrix(9.9626,0,0,-9.9626,94.64247,102.604007)"/>
<use data-text="m" xlink:href="#font_4_6" transform="matrix(9.9626,0,0,-9.9626,99.07583,102.604007)"/>
<use data-text=")" xlink:href="#font_3_2" transform="matrix(9.9626,0,0,-9.9626,107.82301,102.604007)"/>
<use data-text=";" xlink:href="#font_3_6" transform="matrix(9.9626,0,0,-9.9626,111.69846,102.604007)"/>
<use data-text="6" xlink:href="#font_5_6" transform="matrix(6.9738,0,0,-6.9738,9.434013,114.559009)"/>
<use data-text="M" xlink:href="#font_2_1" transform="matrix(9.9626,0,0,-9.9626,18.929013,114.559009)"/>
<use data-text="e" xlink:href="#font_2_3" transform="matrix(9.9626,0,0,-9.9626,28.782025,114.559009)"/>
<use data-text="r" xlink:href="#font_2_6" transform="matrix(9.9626,0,0,-9.9626,34.341157,114.559009)"/>
<use data-text="g" xlink:href="#font_2_4" transform="matrix(9.9626,0,0,-9.9626,40.119466,114.559009)"/>
<use data-text="e" xlink:href="#font_2_3" transform="matrix(9.9626,0,0,-9.9626,46.505495,114.559009)"/>
<use data-text="S" xlink:href="#font_2_2" transform="matrix(9.9626,0,0,-9.9626,52.064626,114.559009)"/>
<use data-text="o" xlink:href="#font_2_5" transform="matrix(9.9626,0,0,-9.9626,58.15177,114.559009)"/>
<use data-text="r" xlink:href="#font_2_6" transform="matrix(9.9626,0,0,-9.9626,64.48798,114.559009)"/>
<use data-text="t" xlink:href="#font_2_7" transform="matrix(9.9626,0,0,-9.9626,69.81797,114.559009)"/>
<use data-text="(" xlink:href="#font_3_1" transform="matrix(9.9626,0,0,-9.9626,75.70502,114.559009)"/>
<use data-text="A" xlink:href="#font_4_4" transform="matrix(9.9626,0,0,-9.9626,79.57902,114.559009)"/>
<use data-text="," xlink:href="#font_4_2" transform="matrix(9.9626,0,0,-9.9626,87.050968,114.559009)"/>
<use data-text="m" xlink:href="#font_4_6" transform="matrix(9.9626,0,0,-9.9626,91.48432,114.559009)"/>
<use data-text="+" xlink:href="#font_3_3" transform="matrix(9.9626,0,0,-9.9626,102.44002,114.559009)"/>
<use data-text="1" xlink:href="#font_3_4" transform="matrix(9.9626,0,0,-9.9626,112.40262,114.559009)"/>
<use data-text="," xlink:href="#font_4_2" transform="matrix(9.9626,0,0,-9.9626,117.38402,114.559009)"/>
<use data-text="r" xlink:href="#font_4_7" transform="matrix(9.9626,0,0,-9.9626,121.817378,114.559009)"/>
<use data-text=")" xlink:href="#font_3_2" transform="matrix(9.9626,0,0,-9.9626,126.583019,114.559009)"/>
<use data-text=";" xlink:href="#font_3_6" transform="matrix(9.9626,0,0,-9.9626,130.45847,114.559009)"/>
<use data-text="7" xlink:href="#font_5_7" transform="matrix(6.9738,0,0,-6.9738,9.434013,126.51401)"/>
<use data-text="M" xlink:href="#font_2_1" transform="matrix(9.9626,0,0,-9.9626,18.929013,126.51401)"/>
<use data-text="e" xlink:href="#font_2_3" transform="matrix(9.9626,0,0,-9.9626,28.782025,126.51401)"/>
<use data-text="r" xlink:href="#font_2_6" transform="matrix(9.9626,0,0,-9.9626,34.341157,126.51401)"/>
<use data-text="g" xlink:href="#font_2_4" transform="matrix(9.9626,0,0,-9.9626,40.119466,126.51401)"/>
<use data-text="e" xlink:href="#font_2_3" transform="matrix(9.9626,0,0,-9.9626,46.505495,126.51401)"/>
<use data-text="(" xlink:href="#font_3_1" transform="matrix(9.9626,0,0,-9.9626,52.060014,126.51401)"/>
<use data-text="A" xlink:href="#font_4_4" transform="matrix(9.9626,0,0,-9.9626,55.934015,126.51401)"/>
<use data-text="," xlink:href="#font_4_2" transform="matrix(9.9626,0,0,-9.9626,63.405965,126.51401)"/>
<use data-text="l" xlink:href="#font_4_5" transform="matrix(9.9626,0,0,-9.9626,67.839328,126.51401)"/>
<use data-text="," xlink:href="#font_4_2" transform="matrix(9.9626,0,0,-9.9626,70.997478,126.51401)"/>
<use data-text="m" xlink:href="#font_4_6" transform="matrix(9.9626,0,0,-9.9626,75.43083,126.51401)"/>
<use data-text="," xlink:href="#font_4_2" transform="matrix(9.9626,0,0,-9.9626,84.17799,126.51401)"/>
<use data-text="r" xlink:href="#font_4_7" transform="matrix(9.9626,0,0,-9.9626,88.61135,126.51401)"/>
<use data-text=")" xlink:href="#font_3_2" transform="matrix(9.9626,0,0,-9.9626,93.377017,126.51401)"/>
<use data-text=";" xlink:href="#font_3_6" transform="matrix(9.9626,0,0,-9.9626,97.252468,126.51401)"/>
<path transform="matrix(1,0,0,-1,3.985,132.492)" stroke-width=".797" stroke-linecap="butt" stroke-miterlimit="10" stroke-linejoin="miter" fill="none" stroke="#000000" d="M0 0H343.711"/>
</svg>
